G04 #@! TF.GenerationSoftware,KiCad,Pcbnew,5.1.6-c6e7f7d~86~ubuntu18.04.1*
G04 #@! TF.CreationDate,2020-10-08T23:40:07-04:00*
G04 #@! TF.ProjectId,DFTBoard,44465442-6f61-4726-942e-6b696361645f,rev?*
G04 #@! TF.SameCoordinates,Original*
G04 #@! TF.FileFunction,Profile,NP*
%FSLAX46Y46*%
G04 Gerber Fmt 4.6, Leading zero omitted, Abs format (unit mm)*
G04 Created by KiCad (PCBNEW 5.1.6-c6e7f7d~86~ubuntu18.04.1) date 2020-10-08 23:40:07*
%MOMM*%
%LPD*%
G01*
G04 APERTURE LIST*
G04 #@! TA.AperFunction,Profile*
%ADD10C,0.150000*%
G04 #@! TD*
G04 #@! TA.AperFunction,Profile*
%ADD11C,0.130000*%
G04 #@! TD*
G04 APERTURE END LIST*
D10*
X-142500000Y-98000000D02*
X-142000000Y-98500000D01*
X-217500000Y-105500000D02*
X-217000000Y-105000000D01*
X-217000000Y-105000000D02*
X-217000000Y-98500000D01*
X-216500000Y-98000000D02*
X-142500000Y-98000000D01*
X-217000000Y-115000000D02*
X-217500000Y-114500000D01*
X-220500000Y-114000000D02*
X-220500000Y-106000000D01*
X-141500000Y-114500000D02*
X-142000000Y-115000000D01*
X-142500000Y-122000000D02*
X-216500000Y-122000000D01*
X-216500000Y-122000000D02*
X-217000000Y-121500000D01*
X-142000000Y-98500000D02*
X-142000000Y-105000000D01*
X-217000000Y-121500000D02*
X-217000000Y-115000000D01*
X-220000000Y-105500000D02*
X-217500000Y-105500000D01*
X-141500000Y-105500000D02*
X-139000000Y-105500000D01*
X-139000000Y-105500000D02*
X-138500000Y-106000000D01*
X-220500000Y-106000000D02*
X-220000000Y-105500000D01*
X-220000000Y-114500000D02*
X-220500000Y-114000000D01*
X-138500000Y-106000000D02*
X-138500000Y-114000000D01*
X-142000000Y-121500000D02*
X-142500000Y-122000000D01*
X-217000000Y-98500000D02*
X-216500000Y-98000000D01*
X-142000000Y-105000000D02*
X-141500000Y-105500000D01*
X-138500000Y-114000000D02*
X-139000000Y-114500000D01*
X-217500000Y-114500000D02*
X-220000000Y-114500000D01*
X-139000000Y-114500000D02*
X-141500000Y-114500000D01*
X-142000000Y-115000000D02*
X-142000000Y-121500000D01*
X508500000Y-98000000D02*
X509000000Y-98500000D01*
X434500000Y-98000000D02*
X508500000Y-98000000D01*
X434000000Y-98500000D02*
X434500000Y-98000000D01*
X434000000Y-105000000D02*
X434000000Y-98500000D01*
X433500000Y-105500000D02*
X434000000Y-105000000D01*
X431000000Y-105500000D02*
X433500000Y-105500000D01*
X430500000Y-106000000D02*
X431000000Y-105500000D01*
X430500000Y-114000000D02*
X430500000Y-106000000D01*
X431000000Y-114500000D02*
X430500000Y-114000000D01*
X433500000Y-114500000D02*
X431000000Y-114500000D01*
X434000000Y-115000000D02*
X433500000Y-114500000D01*
X434000000Y-121500000D02*
X434000000Y-115000000D01*
X434500000Y-122000000D02*
X434000000Y-121500000D01*
X508500000Y-122000000D02*
X434500000Y-122000000D01*
X509000000Y-121500000D02*
X508500000Y-122000000D01*
X509000000Y-115000000D02*
X509000000Y-121500000D01*
X509500000Y-114500000D02*
X509000000Y-115000000D01*
X512000000Y-114500000D02*
X509500000Y-114500000D01*
X512500000Y-114000000D02*
X512000000Y-114500000D01*
X512500000Y-106000000D02*
X512500000Y-114000000D01*
X512000000Y-105500000D02*
X512500000Y-106000000D01*
X509500000Y-105500000D02*
X512000000Y-105500000D01*
X509000000Y-105000000D02*
X509500000Y-105500000D01*
X509000000Y-98500000D02*
X509000000Y-105000000D01*
D11*
X-225000000Y-97000000D02*
G75*
G02*
X-222000000Y-94000000I3000000J0D01*
G01*
X-222000000Y-126000000D02*
G75*
G02*
X-225000000Y-123000000I0J3000000D01*
G01*
X514000000Y-126000000D02*
G75*
G03*
X517000000Y-123000000I0J3000000D01*
G01*
X514000000Y-94000000D02*
G75*
G02*
X517000000Y-97000000I0J-3000000D01*
G01*
X-137000000Y-126000000D02*
X-222000000Y-126000000D01*
X429000000Y-94000000D02*
X514000000Y-94000000D01*
X389000000Y-99000000D02*
X429000000Y-94000000D01*
X517000000Y-97000000D02*
X517000000Y-123000000D01*
X429000000Y-126000000D02*
X514000000Y-126000000D01*
X429000000Y-126000000D02*
X389000000Y-121000000D01*
X-137000000Y-94000000D02*
X-97000000Y-99000000D01*
X-222000000Y-94000000D02*
X-137000000Y-94000000D01*
X-137000000Y-126000000D02*
X-97000000Y-121000000D01*
X389000000Y-121000000D02*
X-97000000Y-121000000D01*
X-97000000Y-99000000D02*
X389000000Y-99000000D01*
X-225000000Y-123000000D02*
X-225000000Y-97000000D01*
M02*
