M48
; DRILL file {KiCad 5.1.6-c6e7f7d~86~ubuntu18.04.1} date Thu Oct  8 23:40:33 2020
; FORMAT={-:-/ absolute / inch / decimal}
; #@! TF.CreationDate,2020-10-08T23:40:33-04:00
; #@! TF.GenerationSoftware,Kicad,Pcbnew,5.1.6-c6e7f7d~86~ubuntu18.04.1
; #@! TF.FileFunction,Plated,1,2,PTH
FMAT,2
INCH
T1C0.0157
T2C0.0472
T3C0.0591
T4C0.0787
%
G90
G05
T1
X-5.5472Y-4.7087
X-5.5157Y-4.0768
X-5.4882Y-3.9823
X-5.4754Y-4.9321
X-5.439Y-3.8091
X-5.4272Y-4.122
X-5.3969Y-4.2445
X-5.3969Y-4.3028
X-5.3913Y-3.963
X-5.3864Y-4.4948
X-5.377Y-4.7549
X-5.3559Y-4.2992
X-5.3465Y-3.987
X-5.3247Y-4.5077
X-5.3209Y-4.5472
X-5.2849Y-4.1034
X-5.2697Y-4.8256
X-5.2618Y-4.6043
X-5.2618Y-4.6516
X-5.2615Y-4.4609
X-5.2606Y-4.2484
X-5.2502Y-4.1222
X-5.2382Y-4.0166
X-5.2244Y-4.8346
X-5.2165Y-4.6043
X-5.2165Y-4.6516
X-5.2155Y-4.7861
X-5.2041Y-4.7483
X-5.1437Y-4.7106
X-5.1361Y-4.5372
X-5.1353Y-4.1497
X-5.1331Y-4.4221
X-5.131Y-4.6233
X-5.1299Y-4.1024
X-5.1102Y-4.687
X-5.1028Y-4.8008
X-5.1003Y-4.3248
X-5.0807Y-4.5457
X-5.0654Y-4.4791
X-5.065Y-4.3012
X-5.0645Y-4.3863
X-5.0624Y-4.1991
X-5.0469Y-3.9146
X-5.0443Y-3.9587
X-5.0442Y-4.2341
X-5.0425Y-4.6941
X-5.0293Y-4.3685
X-5.0249Y-4.553
X-5.0226Y-4.3193
X-5.0157Y-4.0886
X-5.0118Y-4.1378
X-4.9843Y-4.687
X-4.9697Y-4.5721
X-4.9673Y-4.3148
X-4.961Y-4.3692
X-4.9467Y-4.5276
X-4.8831Y-4.539
X-4.8663Y-4.687
X-4.8574Y-4.7646
X-4.853Y-4.1292
X-4.8456Y-4.0904
X-4.839Y-4.5386
X-4.8092Y-4.701
X-4.7657Y-4.7028
X-4.7087Y-4.5315
X-4.7047Y-4.3777
X-4.7035Y-4.2638
X-4.6889Y-4.1015
X-4.6695Y-4.5667
X-4.6503Y-4.1501
X-4.6496Y-4.315
X-4.6417Y-4.2461
X-4.5874Y-4.0512
X-4.5866Y-4.6191
X-4.5256Y-4.4962
X-4.5236Y-4.6191
X-4.5177Y-4.002
X-4.5079Y-4.0433
X-4.4685Y-4.0787
X-4.4685Y-4.3819
X-4.4671Y-4.2238
X-4.4419Y-4.0108
X-4.4276Y-4.2239
X-4.4206Y-4.4326
X-4.4191Y-4.1632
X-4.4155Y-4.4728
X-4.4115Y-4.5398
X-4.3988Y-4.197
X-4.3927Y-4.0502
X-4.3927Y-4.0846
X-4.3813Y-4.6188
X-4.3661Y-4.4684
X-4.3612Y-4.0846
X-4.3602Y-4.0502
X-4.3367Y-4.0115
X-4.2894Y-4.1683
X-4.2854Y-4.0413
X-4.2371Y-4.2187
X-4.2353Y-4.1118
X-4.2069Y-4.0234
X-4.1985Y-4.167
X-4.1476Y-4.1181
X-4.1339Y-4.5768
X-4.1339Y-4.6142
X-4.1161Y-4.0197
X-4.1161Y-4.0591
X-4.1024Y-3.9724
X-4.0965Y-4.5768
X-4.0965Y-4.6142
X-4.0906Y-4.1357
X-4.0768Y-4.0591
X-4.0748Y-4.0197
X-4.0315Y-4.6875
X-3.9563Y-3.9791
X-3.9469Y-4.687
X-3.9095Y-3.9682
X-3.9075Y-4.062
X-3.9075Y-4.5911
X-3.8996Y-4.687
X-3.8701Y-3.9469
X-3.8622Y-4.1033
X-3.8622Y-4.5792
X-3.8583Y-4.6882
X-3.8193Y-4.5911
X-3.8189Y-4.062
X-3.7621Y-3.992
X-3.7323Y-4.6636
X-3.7066Y-3.9696
X-3.6811Y-4.6644
X-3.6785Y-3.9997
X-3.6646Y-4.5839
X-3.6598Y-3.9642
X-3.6154Y-4.6881
X-3.6033Y-4.0354
X-3.6024Y-4.5906
X-3.5984Y-3.9764
X-3.5886Y-4.6591
X-3.3902Y-4.4331
X-3.3898Y-4.2205
X-3.2677Y-4.6063
X-3.2411Y-4.0433
X-3.0354Y-4.003
X-3.0236Y-4.687
X-2.9809Y-3.9713
X-2.9749Y-4.6851
X-2.963Y-4.5911
X-2.9626Y-4.062
X-2.9469Y-3.9469
X-2.9189Y-4.6957
X-2.9177Y-4.5498
X-2.9173Y-4.1033
X-2.8744Y-4.5911
X-2.874Y-4.062
X-2.8205Y-3.9817
X-2.813Y-4.6634
X-2.7683Y-3.9728
X-2.7461Y-4.6626
X-2.7329Y-4.0043
X-2.7307Y-3.9606
X-2.7011Y-4.5812
X-2.689Y-4.6961
X-2.6585Y-4.0354
X-2.6512Y-4.6764
X-2.6492Y-4.5831
X-2.6132Y-4.0364
X-2.4453Y-4.4331
X-2.4449Y-4.2205
X-2.3268Y-4.0551
X-2.3189Y-4.6063
X-2.0905Y-4.003
X-2.0664Y-4.698
X-2.0394Y-3.9685
X-2.0276Y-4.6886
X-2.0181Y-4.5911
X-2.0177Y-4.062
X-2.0Y-3.9449
X-1.974Y-4.6957
X-1.9728Y-4.5498
X-1.9724Y-4.1033
X-1.9295Y-4.5911
X-1.9291Y-4.062
X-1.8756Y-3.9817
X-1.8681Y-4.6634
X-1.8235Y-3.9728
X-1.8012Y-4.6626
X-1.788Y-4.0043
X-1.7858Y-3.9606
X-1.7441Y-4.6961
X-1.7162Y-4.0359
X-1.7069Y-4.5831
X-1.7063Y-4.6764
X-1.6594Y-4.5891
X-1.6339Y-4.0906
X-1.5004Y-4.4331
X-1.5Y-4.2205
X-1.4587Y-4.6063
X-1.4162Y-4.6969
X-1.3071Y-4.0354
X-1.1764Y-4.6527
X-1.1367Y-4.0027
X-1.1215Y-4.698
X-1.0945Y-3.9685
X-1.0827Y-4.6886
X-1.0732Y-4.5911
X-1.0728Y-4.062
X-1.0591Y-3.9449
X-1.0291Y-4.6957
X-1.028Y-4.5432
X-1.0276Y-4.1033
X-0.9846Y-4.5911
X-0.9843Y-4.062
X-0.9308Y-3.9817
X-0.9232Y-4.6634
X-0.8786Y-3.9728
X-0.8563Y-4.6626
X-0.8431Y-4.0043
X-0.8409Y-3.9606
X-0.8114Y-4.5907
X-0.7992Y-4.6961
X-0.7687Y-4.0354
X-0.7614Y-4.6764
X-0.7594Y-4.5907
X-0.752Y-3.9921
X-0.5555Y-4.4331
X-0.5551Y-4.2205
X-0.4331Y-4.0433
X-0.4252Y-4.6083
X-0.2007Y-4.003
X-0.1766Y-4.698
X-0.1462Y-3.9713
X-0.1378Y-4.6886
X-0.1283Y-4.5911
X-0.128Y-4.062
X-0.1122Y-3.9469
X-0.0843Y-4.6957
X-0.0831Y-4.5498
X-0.0827Y-4.1033
X-0.0398Y-4.5911
X-0.0394Y-4.062
X0.0141Y-3.9817
X0.0217Y-4.6634
X0.0641Y-3.9734
X0.0886Y-4.6626
X0.1018Y-4.0043
X0.1026Y-3.9649
X0.1335Y-4.5812
X0.1457Y-4.6961
X0.1762Y-4.0354
X0.1835Y-4.6764
X0.1854Y-4.5831
X0.2028Y-3.9961
X0.3894Y-4.4331
X0.3898Y-4.2205
X0.5079Y-4.0551
X0.5157Y-4.6063
X0.7441Y-4.003
X0.7682Y-4.698
X0.7953Y-3.9685
X0.8071Y-4.6886
X0.8165Y-4.5911
X0.8169Y-4.062
X0.8287Y-3.9449
X0.8606Y-4.6957
X0.8618Y-4.5498
X0.8622Y-4.1033
X0.9051Y-4.5911
X0.9055Y-4.062
X0.959Y-3.9817
X0.9665Y-4.6634
X1.0112Y-3.9728
X1.0335Y-4.6626
X1.0467Y-4.0043
X1.0488Y-3.9606
X1.0906Y-4.6961
X1.1184Y-4.0359
X1.1277Y-4.5831
X1.1283Y-4.6764
X1.1752Y-4.5891
X1.2008Y-4.0906
X1.3343Y-4.4331
X1.3346Y-4.2205
X1.5276Y-4.0354
X1.5315Y-4.628
X1.6583Y-4.6527
X1.6979Y-4.0027
X1.7131Y-4.698
X1.7402Y-3.9685
X1.752Y-4.6886
X1.7614Y-4.5911
X1.7618Y-4.062
X1.7776Y-3.9449
X1.8055Y-4.6957
X1.8067Y-4.5498
X1.8071Y-4.1033
X1.85Y-4.5911
X1.8504Y-4.062
X1.9039Y-3.9817
X1.9114Y-4.6634
X1.9561Y-3.9728
X1.9783Y-4.6626
X1.9915Y-4.0043
X1.9937Y-3.9606
X2.0233Y-4.5812
X2.0354Y-4.6961
X2.0659Y-4.0354
X2.0732Y-4.6764
X2.0752Y-4.5831
X2.0827Y-3.9921
X2.2791Y-4.4331
X2.2795Y-4.2205
X2.4016Y-4.0433
X2.4094Y-4.6083
X2.6339Y-4.003
X2.658Y-4.698
X2.6884Y-3.9713
X2.6969Y-4.6886
X2.7063Y-4.5911
X2.7067Y-4.062
X2.7224Y-3.9469
X2.7504Y-4.6957
X2.7516Y-4.5498
X2.752Y-4.1033
X2.7949Y-4.5911
X2.7953Y-4.062
X2.8488Y-3.9817
X2.8563Y-4.6634
X2.9009Y-3.9728
X2.9232Y-4.6626
X2.9364Y-4.0043
X2.9386Y-3.9606
X2.9682Y-4.5812
X2.9803Y-4.6961
X3.0108Y-4.0354
X3.0181Y-4.6764
X3.0201Y-4.5831
X3.0315Y-3.9862
X3.224Y-4.4331
X3.2244Y-4.2205
X3.3425Y-4.0551
X3.3504Y-4.6063
X3.5788Y-4.003
X3.6029Y-4.698
X3.6299Y-3.9685
X3.6417Y-4.6886
X3.6512Y-4.5911
X3.6516Y-4.062
X3.6673Y-3.9449
X3.6953Y-4.6957
X3.6965Y-4.5498
X3.6969Y-4.1033
X3.7398Y-4.5911
X3.7402Y-4.062
X3.7937Y-3.9817
X3.8012Y-4.6634
X3.8458Y-3.9728
X3.8681Y-4.6626
X3.8813Y-4.0043
X3.8835Y-3.9606
X3.9252Y-4.6961
X3.9531Y-4.0359
X3.9624Y-4.5831
X3.963Y-4.6764
X4.0099Y-4.5891
X4.0354Y-4.0906
X4.1689Y-4.4331
X4.1693Y-4.2205
X4.3622Y-4.0354
X4.3661Y-4.628
X4.4929Y-4.6527
X4.5326Y-4.0027
X4.5478Y-4.698
X4.5748Y-3.9694
X4.5866Y-4.6886
X4.5961Y-4.5911
X4.5965Y-4.062
X4.6142Y-3.9449
X4.6402Y-4.6957
X4.6413Y-4.5498
X4.6417Y-4.1033
X4.6846Y-4.5911
X4.685Y-4.062
X4.7385Y-3.9817
X4.7461Y-4.6634
X4.7907Y-3.9728
X4.813Y-4.6626
X4.8262Y-4.0043
X4.8283Y-3.9606
X4.8579Y-4.5812
X4.8701Y-4.6961
X4.9006Y-4.0354
X4.9079Y-4.6764
X4.9098Y-4.5831
X4.9173Y-3.9921
X5.1138Y-4.4331
X5.1142Y-4.2205
X5.2362Y-4.0433
X5.2441Y-4.6083
X5.4686Y-4.003
X5.4926Y-4.698
X5.5231Y-3.9713
X5.5315Y-4.6886
X5.5409Y-4.5911
X5.5413Y-4.062
X5.5591Y-3.9469
X5.585Y-4.6957
X5.5862Y-4.5498
X5.5866Y-4.1033
X5.6295Y-4.5911
X5.6299Y-4.062
X5.6834Y-3.9817
X5.6909Y-4.6634
X5.7356Y-3.9728
X5.7579Y-4.6626
X5.7711Y-4.0043
X5.7732Y-3.9606
X5.8028Y-4.5812
X5.815Y-4.6961
X5.8455Y-4.0354
X5.8528Y-4.6764
X5.8547Y-4.5831
X5.8681Y-3.9843
X6.0587Y-4.4331
X6.0591Y-4.2205
X6.1811Y-4.0433
X6.189Y-4.6083
X6.4134Y-4.003
X6.4375Y-4.698
X6.4679Y-3.9713
X6.4764Y-4.6886
X6.4858Y-4.5911
X6.4862Y-4.062
X6.5039Y-3.9469
X6.5299Y-4.6957
X6.5311Y-4.5498
X6.5315Y-4.1033
X6.5744Y-4.5911
X6.5748Y-4.062
X6.6283Y-3.9817
X6.6358Y-4.6634
X6.6805Y-3.9728
X6.7028Y-4.6626
X6.7159Y-4.0043
X6.7181Y-3.9606
X6.7477Y-4.5812
X6.7598Y-4.6961
X6.7904Y-4.0354
X6.7976Y-4.6764
X6.7996Y-4.5831
X6.8091Y-3.9941
X7.0035Y-4.4331
X7.0039Y-4.2205
X7.122Y-4.0551
X7.1299Y-4.6063
X7.3583Y-4.003
X7.3824Y-4.698
X7.4094Y-3.9702
X7.4213Y-4.6886
X7.4307Y-4.5911
X7.4311Y-4.062
X7.4504Y-3.9465
X7.4748Y-4.6957
X7.476Y-4.5498
X7.4764Y-4.1033
X7.5193Y-4.5911
X7.5197Y-4.062
X7.5732Y-3.9817
X7.5807Y-4.6634
X7.6254Y-3.9728
X7.6476Y-4.6626
X7.6608Y-4.0043
X7.7047Y-4.6961
X7.7126Y-3.9843
X7.7326Y-4.0359
X7.7419Y-4.5831
X7.7425Y-4.6764
X7.7894Y-4.5891
X7.8063Y-4.0957
X7.9484Y-4.4331
X7.9488Y-4.2205
X8.1417Y-4.0354
X8.1457Y-4.628
X8.2724Y-4.6527
X8.3121Y-4.0027
X8.3273Y-4.698
X8.3543Y-3.9685
X8.3661Y-4.6886
X8.3756Y-4.5911
X8.376Y-4.062
X8.3917Y-3.9449
X8.4197Y-4.6957
X8.4209Y-4.5498
X8.4213Y-4.1033
X8.4642Y-4.5911
X8.4646Y-4.062
X8.5181Y-3.9817
X8.5256Y-4.6634
X8.5702Y-3.9728
X8.5925Y-4.6626
X8.6057Y-4.0043
X8.6079Y-3.9606
X8.6375Y-4.5812
X8.6496Y-4.6961
X8.6801Y-4.0354
X8.6874Y-4.6764
X8.6894Y-4.5831
X8.6969Y-3.9921
X8.8933Y-4.4331
X8.8937Y-4.2205
X9.0157Y-4.6063
X9.0177Y-4.0433
X9.2481Y-4.003
X9.2722Y-4.698
X9.3026Y-3.9713
X9.311Y-4.6886
X9.3205Y-4.5911
X9.3209Y-4.062
X9.3386Y-3.9469
X9.3646Y-4.6957
X9.3657Y-4.5498
X9.3661Y-4.1033
X9.4091Y-4.5911
X9.4094Y-4.062
X9.4629Y-3.9817
X9.4705Y-4.6634
X9.5151Y-3.9728
X9.5374Y-4.6626
X9.5506Y-4.0043
X9.5528Y-3.9606
X9.5823Y-4.5812
X9.5945Y-4.6961
X9.625Y-4.0354
X9.6323Y-4.6764
X9.6343Y-4.5831
X9.6703Y-4.0364
X9.8382Y-4.4331
X9.8386Y-4.2205
X9.9567Y-4.0551
X9.9646Y-4.6063
X10.193Y-4.003
X10.2171Y-4.698
X10.2441Y-3.9685
X10.2559Y-4.6886
X10.2654Y-4.5911
X10.2657Y-4.062
X10.2815Y-3.9461
X10.3094Y-4.6957
X10.3106Y-4.5498
X10.311Y-4.1033
X10.3539Y-4.5911
X10.3543Y-4.062
X10.4078Y-3.9817
X10.4154Y-4.6634
X10.46Y-3.9728
X10.4823Y-4.6626
X10.4955Y-4.0043
X10.4976Y-3.9606
X10.5394Y-4.6961
X10.5672Y-4.0359
X10.5766Y-4.5831
X10.5772Y-4.6764
X10.624Y-4.5891
X10.6496Y-4.0906
X10.7831Y-4.4331
X10.7835Y-4.2205
X10.9626Y-4.5689
X10.9764Y-4.0354
X11.1071Y-4.6527
X11.1467Y-4.0027
X11.1619Y-4.698
X11.189Y-3.9685
X11.2008Y-4.6886
X11.2102Y-4.5911
X11.2106Y-4.062
X11.2283Y-3.9449
X11.2543Y-4.6957
X11.2555Y-4.5432
X11.2559Y-4.1033
X11.2988Y-4.5911
X11.2992Y-4.062
X11.3527Y-3.9817
X11.3602Y-4.6634
X11.4049Y-3.9728
X11.4272Y-4.6626
X11.4404Y-4.0043
X11.4425Y-3.9606
X11.4721Y-4.5907
X11.4843Y-4.6961
X11.5148Y-4.0354
X11.522Y-4.6764
X11.524Y-4.5907
X11.5315Y-3.9921
X11.728Y-4.4331
X11.7283Y-4.2205
X11.8504Y-4.0433
X11.8583Y-4.6083
X12.0827Y-4.003
X12.1068Y-4.698
X12.1372Y-3.9713
X12.1457Y-4.6886
X12.1551Y-4.5911
X12.1555Y-4.062
X12.1713Y-3.9469
X12.1992Y-4.6957
X12.2004Y-4.5498
X12.2008Y-4.1033
X12.2437Y-4.5911
X12.2441Y-4.062
X12.2976Y-3.9817
X12.3051Y-4.6634
X12.3498Y-3.9728
X12.372Y-4.6626
X12.3852Y-4.0043
X12.3874Y-3.9606
X12.417Y-4.5812
X12.4291Y-4.6961
X12.4596Y-4.0354
X12.4669Y-4.6764
X12.4689Y-4.5831
X12.4724Y-3.9882
X12.6728Y-4.4331
X12.6732Y-4.2205
X12.7913Y-4.0551
X12.7992Y-4.6063
X13.0276Y-4.003
X13.0517Y-4.698
X13.0787Y-3.9685
X13.0906Y-4.6886
X13.1Y-4.5911
X13.1004Y-4.062
X13.1181Y-3.9449
X13.1441Y-4.6957
X13.1453Y-4.5498
X13.1457Y-4.1033
X13.1886Y-4.5911
X13.189Y-4.062
X13.2425Y-3.9817
X13.25Y-4.6634
X13.2946Y-3.9728
X13.3169Y-4.6626
X13.3301Y-4.0043
X13.3323Y-3.9606
X13.374Y-4.6961
X13.4019Y-4.0359
X13.4112Y-4.5831
X13.4118Y-4.6764
X13.4587Y-4.5891
X13.4843Y-4.0906
X13.6177Y-4.4331
X13.6181Y-4.2205
X13.811Y-4.0354
X13.815Y-4.628
X13.9417Y-4.6527
X13.9814Y-4.0027
X13.9966Y-4.698
X14.0236Y-3.9685
X14.0354Y-4.6886
X14.0449Y-4.5911
X14.0453Y-4.062
X14.057Y-3.9448
X14.089Y-4.6957
X14.0902Y-4.5498
X14.0906Y-4.1033
X14.1335Y-4.5911
X14.1339Y-4.062
X14.1874Y-3.9817
X14.1949Y-4.6634
X14.2395Y-3.9728
X14.2618Y-4.6626
X14.275Y-4.0043
X14.2772Y-3.9606
X14.3067Y-4.5812
X14.3189Y-4.6961
X14.3494Y-4.0354
X14.3567Y-4.6764
X14.3587Y-4.5831
X14.3661Y-3.9921
X14.685Y-4.0433
X14.6929Y-4.6083
X14.9174Y-4.003
X14.9415Y-4.698
X14.9719Y-3.9713
X14.9803Y-4.6886
X14.9898Y-4.5911
X14.9902Y-4.062
X15.0059Y-3.9469
X15.0339Y-4.6957
X15.035Y-4.5498
X15.0354Y-4.1033
X15.0783Y-4.5911
X15.0787Y-4.062
X15.1322Y-3.9817
X15.1398Y-4.6634
X15.1844Y-3.9728
X15.2067Y-4.6626
X15.2199Y-4.0043
X15.222Y-3.9606
X15.2516Y-4.5812
X15.2638Y-4.6961
X15.2943Y-4.0354
X15.3016Y-4.6764
X15.3035Y-4.5831
X15.3051Y-3.9941
X15.626Y-4.0551
X15.6339Y-4.6063
X15.8623Y-4.003
X15.9134Y-3.9685
X15.9346Y-4.5911
X15.935Y-4.062
X15.9465Y-3.9417
X15.9787Y-4.6957
X15.9799Y-4.5498
X15.9803Y-4.1033
X16.0232Y-4.5911
X16.0236Y-4.062
X16.0315Y-3.9705
X16.0846Y-4.6634
X16.1516Y-4.6626
X16.1648Y-4.0043
X16.2365Y-4.0359
X16.2458Y-4.5831
X16.4469Y-4.1161
X16.5354Y-4.5689
X17.1673Y-3.7766
X17.2673Y-3.7766
X17.3673Y-3.7766
X17.4673Y-3.7766
X17.5673Y-3.7766
X17.6673Y-3.7766
X17.7673Y-3.7766
X17.8673Y-3.7766
X17.9673Y-3.7766
X18.0673Y-3.7766
X18.1673Y-3.7766
X18.2673Y-3.7766
X18.3673Y-3.7766
X18.4673Y-3.7766
X18.5673Y-3.7766
X18.6673Y-3.7766
X18.7673Y-3.7766
X18.8673Y-3.7766
X18.9673Y-3.7766
X19.0673Y-3.7766
X19.1673Y-3.7766
X19.2673Y-3.7766
X19.3673Y-3.7766
X19.4673Y-3.7766
X19.5673Y-3.7766
X19.6673Y-3.7766
X19.7673Y-3.7766
X19.8673Y-3.7766
X19.9673Y-3.7766
X20.0866Y-3.7579
X20.0866Y-3.7992
X20.0866Y-3.8976
X20.0866Y-3.9449
X20.1043Y-3.8563
X20.126Y-3.9764
X20.286Y-3.7809
T2
X-5.3313Y-3.9124
X-5.2313Y-3.9124
X-5.1329Y-3.9124
X-4.798Y-3.8711
X-4.6987Y-3.8824
X-4.5993Y-3.8938
X-4.4999Y-3.9051
X-4.4006Y-3.9164
X-4.3012Y-3.9277
X-5.0925Y-4.7382
X-4.9925Y-4.7382
T3
X-4.4114Y-4.3307
X-3.3858Y-4.0551
X16.378Y-4.0551
X16.378Y-4.6063
X-3.3858Y-4.6063
T4
X16.9488Y-4.0551
X20.1772Y-4.6063
X-8.6693Y-4.0591
X-5.4409Y-4.6102
T0
M30
